<?xml version="1.0" encoding="UTF-8"?>
<!-- Created with Inkscape (http://www.inkscape.org/) -->
<svg width="1122.5" height="793.7" version="1.1" viewBox="0 0 297 210" xmlns="http://www.w3.org/2000/svg">
 <path d="m-8.851 85.56 168.17-9.6557-23.066-16.093 36.745-4.5596 4.5596-60.616-182.38 1.3411z" fill="#fff" stroke-width=".26458"/>
 <g stroke-width=".2075">
  <path d="m-4.7739 92.166 180.1-13.528-32.127-17.848 135.95-14.279 57.71 9.8166 1.4874-8.0318-58.604-6.6621-155.01 15.823 18.559 16.042-147.76 4.8421z" fill="#87aade"/>
  <path d="m222.93 69.416 0.29748-10.412h-4.1646l20.526-17.848 19.931 18.741-5.057 0.59495 0.89242 10.114z" fill="#d35f5f"/>
  <path d="m270.82 59.005-4.7596-27.962-19.931-2.6773 10.114-3.5697-12.196-1.1899 11.601-3.5697-13.089-4.1646 46.703-2.9747-10.412 7.1393 10.412 0.29747-9.2217 4.4621 11.899 0.89242-15.766 4.7596 2.0823 27.962z" fill="#4a0"/>
  <path d="m209.24 59.302-7.1394-0.29747 1.1899-12.494-10.114-0.89242 8.6267-6.8419-6.8419-0.29747 7.4368-5.9495h-6.2469l11.899-13.981 8.9242 15.171h-4.4621l5.652 6.8419h-7.1394l7.1394 5.057-7.7343 0.89242z" fill="#338000"/>
  <path d="m275.28 73.581 26.475-1.1899-1.1899-11.601-5.057 6.8419-5.057-6.5444-1.1899 4.7596-5.652-3.8671-0.8924 5.057-7.7343-4.4621z" fill="#338000"/>
 </g>
 <path d="m263.75 87.178-4.2526-4.2526 4.4298-3.5438 4.9613 5.3157-2.4807 1.7719 2.1263 7.7964 5.1385 3.1894-2.4807 2.3035-6.2017-4.9613-6.0245 4.2526-1.2403-2.3035 5.8473-3.0122-0.70877-4.4298h-3.3666l-0.17719-1.9491z" fill="#d35f5f" stroke-width=".24719"/>
 <path d="m198.66 69.966-2.9118-2.1618 3.5294-4.5441 3.6176 4.0588-1.2353 2.4706 2.5127-0.55083-0.94334-1.0839 1.2951-0.98328 2.8984 2.5022-4.0154 2.3001 3.1937 3.9921 9.508 0.35294-0.58614 1.3735-9.2088 0.49058 7.3827 0.68168 0.0289 1.4009-11.536-0.2407-3.353-7.4117-5.9493 0.37698-0.92734-1.1131 2.8178-3.3227 1.7824 0.45-0.98824 1.8882z" fill="#d35f5f" stroke-width=".34816"/>
</svg>
