<?xml version="1.0" encoding="UTF-8"?>
<!-- Created with Inkscape (http://www.inkscape.org/) -->
<svg width="800" height="800" version="1.1" viewBox="0 0 211.67 211.67" xmlns="http://www.w3.org/2000/svg">
 <rect width="211.67" height="211.67" fill="#fff" stroke-width="1.0656"/>
 <path d="m-12.517 75.539 47.414-24.655s-5.1415-11.004-3.8097-16.52c1.3318-5.5155 6.281-11.985 11.017-13.066s7.9211 0.08724 11 4.931c3.0789 4.8438-0.37931 22.379-0.37931 22.379h33.379s-2.9903-15.777-1.5172-20.862 1.9285-8.3497 6.4483-8.7241 9.2811 5.8268 11.759 11.379 0.75862 20.103 0.75862 20.103l37.552 61.448s2.6114 17.2-0.75862 24.655-10.151 13.983-17.828 16.69c-11.239 3.9638-26.952 0.12375-35.655-2.6552s-16.31-9.8621-16.31-9.8621l-14.414 9.1034 16.69 28.448s8.9225-15.269 15.172-17.448 20.906 3.8455 20.906 3.8455-0.97009 16.257-4.8178 19.676-10.778 1.8923-10.778 1.8923-9.7758 22.933-24.655 23.517-42.862-34.897-42.862-34.897l-33.759 6.4483z" fill="#6c5353" stroke-width=".26458"/>
 <path d="m147.54 164.73s2.425 12.227-1.7535 15.617-14.599 2.1584-14.599 2.1584 1.4212 19.341-5.6552 21.241c-5.8681 1.5754-12.881-12.897-12.881-12.897s2.5853-23.709 9.7395-28.448 25.149 2.3286 25.149 2.3286z" fill="#6c5353" stroke-width=".2408"/>
 <g fill="#241c1c">
  <path d="m100.52 118.78h28.448l-2.6552 8.7241-22.759-0.37931z" stroke-width=".26458"/>
  <path d="m78.866 90.939c-1.9748-0.04-4.9305 1.6881-4.9152 3.8467s3.275 4.2554 5.3426 4.0604c2.0676-0.19504 3.973-2.385 3.8467-4.2741-0.12627-1.8891-2.2993-3.593-4.2741-3.633z" stroke-width=".42162"/>
  <path d="m102.51 93.292c0.21871-1.5631 1.8371-3.4849 3.7891-3.4261 1.952 0.0587 4.4944 2.4305 4.188 4.3277-0.30643 1.8972-3.5283 3.4719-5.3845 3.0655-1.8562-0.40643-2.8112-2.404-2.5926-3.9671z" stroke-width=".37414"/>
  <path d="m91.983 48.228s-2.6452-15.668-1.7069-19.534 0.29567-3.6694 2.2759-3.6034c1.9802 0.06597 2.7635 2.7851 3.6342 6.7044s-0.97901 16.434-0.97901 16.434z" stroke-width=".26458"/>
  <path d="m43.81 26.418c2.1891-0.99641 2.6715-1.2556 4.931 2.2759s0 19.724 0 19.724l-5.1207 0.18966s-2.5482-9.7645-2.333-13.55 0.3336-7.6432 2.5227-8.6396z" stroke-width=".26458"/>
 </g>
 <path d="m160.45 22.435-7.9655 200.28 11.379-0.37931 3.7931-201.03z" fill="#6c5353" stroke-width=".26458"/>
 <g fill="#5aa02c" stroke-width=".26458">
  <path d="m158.27 73.263s-21.195-2.8313-29.586-9.4828-17.069-28.448-17.069-28.448 24.129 9.8728 31.862 16.69 14.793 21.241 14.793 21.241z"/>
  <path d="m159.03 57.142s-15.318-10.08-20.313-18.966-6.997-34.138-6.997-34.138 17.384 16.405 21.516 25.749 5.7944 27.355 5.7944 27.355z"/>
  <path d="m167.28 56.194s2.4537-16.53 8.7241-23.897 28.448-15.931 28.448-15.931-8.6542 22.97-15.552 29.586-21.621 10.241-21.621 10.241z"/>
  <path d="m166.2 81.659s10.06-20.143 17.847-25.648c7.787-5.5048 25.045-6.8736 25.045-6.8736s-8.4638 15.828-15.823 21.554c-7.3588 5.7261-27.069 10.968-27.069 10.968z"/>
 </g>
 <path d="m108.55 131.17 13.411-0.53642-1.3411 9.1192 0.80464 5.6325-9.6557 0.53643 2.4139-6.4371z" fill="#faa" stroke-width=".26458"/>
</svg>
