<?xml version="1.0" encoding="UTF-8" standalone="no"?>
<!-- Created with Inkscape (http://www.inkscape.org/) -->

<svg
   width="200"
   height="200"
   viewBox="0 0 52.916665 52.916666"
   version="1.1"
   id="svg1"
   inkscape:version="1.4 (86a8ad7, 2024-10-11)"
   sodipodi:docname="favicon.svg"
   inkscape:export-filename="C:\Users\PC\Desktop\temp\roro castor.png"
   inkscape:export-xdpi="384"
   inkscape:export-ydpi="384"
   xmlns:inkscape="http://www.inkscape.org/namespaces/inkscape"
   xmlns:sodipodi="http://sodipodi.sourceforge.net/DTD/sodipodi-0.dtd"
   xmlns="http://www.w3.org/2000/svg"
   xmlns:svg="http://www.w3.org/2000/svg">
  <sodipodi:namedview
     id="namedview1"
     pagecolor="#505050"
     bordercolor="#eeeeee"
     borderopacity="1"
     inkscape:showpageshadow="0"
     inkscape:pageopacity="0"
     inkscape:pagecheckerboard="0"
     inkscape:deskcolor="#505050"
     inkscape:document-units="mm"
     inkscape:zoom="2.8284271"
     inkscape:cx="137.70905"
     inkscape:cy="69.119688"
     inkscape:window-width="1920"
     inkscape:window-height="1001"
     inkscape:window-x="-9"
     inkscape:window-y="-9"
     inkscape:window-maximized="1"
     inkscape:current-layer="layer1" />
  <defs
     id="defs1" />
  <g
     inkscape:label="Calque 1"
     inkscape:groupmode="layer"
     id="layer1">
    <rect
       style="fill:#aaffcc;fill-opacity:1;stroke-width:0.264583"
       id="rect16"
       width="52.916668"
       height="52.916668"
       x="2.220446e-16"
       y="0" />
    <path
       style="fill:#5599ff;fill-opacity:1;stroke-width:0.264583"
       d="m -2.4321526,30.027731 c 0,0 5.6126599,4.957849 15.8089926,5.144938 10.196332,0.18709 9.915699,-4.95785 20.205576,-5.425571 10.289876,-0.467722 22.170007,3.461141 22.170007,3.461141 l 0.374176,-5.706205 c 0,0 -11.412408,-4.022407 -23.011905,-2.80633 -11.599497,1.216076 -11.22532,6.080381 -18.147601,6.080381 -6.9222804,0 -17.0250683,-4.209495 -17.0250683,-4.209495 z"
       id="path16" />
    <path
       style="fill:#483e37;stroke-width:0.264583"
       d="m 7.8577241,54.910524 -8.6996231,-0.18709 c 0,0 -11.599497,-24.789246 -2.7127857,-26.660133 8.8867116,-1.870888 14.2187387,22.824815 14.2187387,22.824815 z"
       id="path2" />
    <path
       style="fill:#a05a2c;stroke-width:0.302283;fill-opacity:1"
       d="M 4.8643053,53.881535 9.0323599,17.758398 c 0,0 0,-5.023039 2.3512101,-4.916167 2.35121,0.106869 1.816844,5.129913 1.816844,5.129913 l 2.99245,-0.213746 c 0,0 -0.641239,-5.129913 1.603098,-5.129913 2.244337,0 2.351209,5.450532 2.351209,5.450532 0,0 1.273561,0.594581 3.28274,2.573189 2.00918,1.978608 4.234872,3.864465 2.274666,7.259145 -2.276,3.941571 -5.18595,3.648709 -5.18595,3.648709 0,0 1.045494,4.491477 4.010346,4.473654 4.226214,-0.02541 3.935367,-4.638856 7.847379,-2.628648 5.07775,2.609229 0.203349,7.302615 -1.39975,8.47822 -1.603097,1.175607 -6.931159,2.844849 -6.931159,2.844849 l 0.48353,8.512161 z"
       id="path1"
       sodipodi:nodetypes="ccsccsczscsssccc" />
    <path
       style="fill:#ffffff;stroke-width:0.264583"
       d="m 20.339843,28.508854 0.661459,1.289844 0.826823,-0.03307 0.09922,-0.463021 0.165365,0.463021 h 0.892969 l 0.396875,-1.521355 -1.819011,-1.5875 z"
       id="path12" />
    <path
       style="fill:#483e37;stroke-width:0.33041"
       d="m 18.865625,25.172587 4.70192,-0.379658 0.204432,1.138974 -1.401816,0.146022 c 0,0 0.175228,1.401816 1.109771,1.401816 0.934543,0 1.168179,-0.02921 1.168179,-0.02921 l -0.08762,1.051361 c 0,0 -1.255793,0.408864 -1.9567,-0.204432 -0.700907,-0.613293 -0.948273,-1.105901 -0.948273,-1.105901 0,0 -0.164308,0.95495 -0.952823,1.334605 -0.78852,0.379658 -1.945094,0.590765 -1.945094,0.590765 l -0.409925,-1.1147 c 0,0 0.941217,-0.111506 1.729737,-0.461963 0.788521,-0.350453 0.415239,-1.445813 0.415239,-1.445813 l -1.451806,0.129486 z"
       id="path3"
       sodipodi:nodetypes="ccccsccscsccsccc" />
    <path
       style="fill:#483e37;stroke-width:0.33041"
       d="m 21.232251,23.805588 1.04256,-0.105213 -0.196693,-1.156191 -1.109771,0.262841 z"
       id="path4"
       sodipodi:nodetypes="ccccc" />
    <path
       style="fill:#483e37;stroke-width:0.33041"
       d="m 18.778012,23.88759 -1.051361,-0.02921 0.02921,-1.138975 1.10977,0.02921 z"
       id="path5" />
    <path
       style="fill:#483e37;stroke-width:0.36092"
       d="m 12.131243,14.272359 0.02306,3.66416 -1.867244,0.02208 -0.09221,-1.103663 h 0.922096 l -0.06916,-2.670865 z"
       id="path6" />
    <path
       style="fill:#483e37;stroke-width:0.421508"
       d="m 17.135095,13.993655 0.08803,3.87942 h 0.968193 l 0.247643,-3.925968 z"
       id="path7"
       sodipodi:nodetypes="ccccc" />
    <path
       style="fill:#483e37;stroke-width:0.264583"
       d="m 27.880468,36.677864 1.554427,-1.190625 2.976563,2.248958 -1.620573,1.620573 -1.422135,-0.859895 0.760677,-0.760678 -0.694532,-0.46302 -0.595312,0.529166 z"
       id="path8" />
    <path
       style="fill:#483e37;stroke-width:0.264583"
       d="m 29.864843,34.759635 0.826823,0.330729 0.330729,-0.859896 -0.892968,-0.264583 z"
       id="path9" />
    <path
       style="fill:#483e37;stroke-width:0.264583"
       d="m 31.452343,35.454166 0.661459,0.56224 0.727604,-0.826823 -0.926042,-0.661458 z"
       id="path10" />
    <path
       style="fill:#483e37;stroke-width:0.264583"
       d="m 32.676041,36.446354 0.231511,0.694531 0.892968,-0.03307 -0.03307,-0.859896 z"
       id="path11" />
    <path
       style="fill:#a05a2c;stroke-width:0.264583"
       d="m 34.660416,54.239583 3.797711,-31.814199 c 0,0 -7.501877,0.0642 -10.280002,-2.846218 C 25.4,16.66875 25.828974,9.641242 25.828974,9.641242 l 3.804359,0.01605 c 0,0 -0.661458,3.7041663 1.5875,5.6885413 2.248958,1.984375 7.672917,0.93269 7.672917,0.93269 l 0.661458,-3.049357 9.392708,0.264584 -0.264583,40.745833 z"
       id="path13"
       sodipodi:nodetypes="ccsccsccccc" />
    <path
       style="fill:#55d400;stroke-width:0.264583"
       d="m 51.509607,10.147711 -45.2786028,0.0775 c 0,0 1.238774,-7.1531521 5.2075238,-6.8885688 3.96875,0.2645834 5.230222,3.5425294 5.230222,3.5425294 0,0 -0.0066,-3.6427217 4.226685,-3.6427217 4.233333,0 4.769148,3.6427217 4.769148,3.6427217 0,0 0.79375,-3.3072916 3.836458,-3.3072916 3.042709,0 4.101042,3.1749999 4.101042,3.1749999 0,0 1.5875,-3.7041666 4.630208,-3.4395833 3.042708,0.2645834 4.233333,3.3072916 4.233333,3.3072916 0,0 1.045038,-2.9652136 4.35233,-2.9652136 3.307291,0 4.691653,6.4983414 4.691653,6.4983414 z"
       id="path14"
       sodipodi:nodetypes="ccscscscscscc" />
    <path
       style="fill:#483e37;fill-opacity:1;stroke-width:0.264583"
       d="m 13.427604,34.991145 c 1.466196,0.619493 0.727604,2.645834 3.108854,3.373438 2.38125,0.727604 4.7625,-3.108854 7.474479,0.727604 2.711979,3.836458 -4.7625,7.077604 -8.995833,5.55625 -4.233333,-1.521354 -7.2098957,-2.71198 -7.5406249,-4.7625 -0.3307292,-2.050521 -0.4630209,-3.439583 0.9921875,-4.7625 1.4552083,-1.322917 3.4947414,-0.751785 4.9609374,-0.132292 z"
       id="path15"
       sodipodi:nodetypes="zsssssz" />
  </g>
</svg>
